<?xml version="1.0" encoding="UTF-8"?>
<svg xmlns="http://www.w3.org/2000/svg" xmlns:xlink="http://www.w3.org/1999/xlink"   viewBox="0 0 192 192" version="1.1">
<g>
<path style=" stroke:none;fill-rule:nonzero;fill-opacity:1;" fill="#009fb1" d="M 164.691406 33.449219 L 94.117188 7.722656 C 93.367188 7.421875 92.542969 7.421875 91.792969 7.722656 L 21.292969 33.449219 C 19.941406 33.972656 18.96875 35.25 18.96875 36.75 L 18.96875 111.449219 C 18.96875 122.398438 22.945312 133.050781 30.742188 143.175781 C 36.816406 151.050781 45.292969 158.699219 55.792969 165.75 C 73.566406 177.675781 91.117188 183.976562 91.792969 184.273438 C 92.167969 184.421875 92.542969 184.5 92.917969 184.5 C 93.292969 184.5 93.667969 184.425781 94.042969 184.273438 C 94.792969 183.972656 112.269531 177.671875 130.042969 165.75 C 140.617188 158.699219 149.019531 151.050781 155.09375 143.175781 C 162.894531 133.050781 166.867188 122.324219 166.867188 111.449219 L 166.867188 36.75 C 167.015625 35.25 166.117188 33.976562 164.691406 33.449219 Z M 133.566406 77.847656 L 89.765625 121.121094 C 88.339844 122.546875 86.464844 123.296875 84.515625 123.296875 C 84.515625 123.296875 84.441406 123.296875 84.441406 123.296875 C 82.417969 123.296875 80.542969 122.398438 79.117188 120.972656 L 53.992188 94.648438 C 51.140625 91.648438 51.21875 86.921875 54.21875 84.074219 C 57.21875 81.222656 61.945312 81.300781 64.792969 84.300781 L 84.667969 105.152344 L 122.992188 67.203125 C 125.917969 64.277344 130.640625 64.351562 133.566406 67.277344 C 136.492188 70.203125 136.492188 75.003906 133.566406 77.851562 Z M 133.566406 77.847656 "/>
</g>
</svg>
