<svg id="visual" viewBox="0 0 960 540" width="900" height="540" xmlns="http://www.w3.org/2000/svg" xmlns:xlink="http://www.w3.org/1999/xlink" version="1.1"><rect x="0" y="0" width="960" height="540" fill="#ffffff"></rect><defs><linearGradient id="grad1_0" x1="43.8%" y1="0%" x2="100%" y2="100%"><stop offset="14.444444444444446%" stop-color="#42bfd0" stop-opacity="1"></stop><stop offset="85.55555555555554%" stop-color="#42bfd0" stop-opacity="1"></stop></linearGradient></defs><defs><linearGradient id="grad1_1" x1="43.8%" y1="0%" x2="100%" y2="100%"><stop offset="14.444444444444446%" stop-color="#42bfd0" stop-opacity="1"></stop><stop offset="85.55555555555554%" stop-color="#ffffff" stop-opacity="1"></stop></linearGradient></defs><defs><linearGradient id="grad2_0" x1="0%" y1="0%" x2="56.3%" y2="100%"><stop offset="14.444444444444446%" stop-color="#42bfd0" stop-opacity="1"></stop><stop offset="85.55555555555554%" stop-color="#42bfd0" stop-opacity="1"></stop></linearGradient></defs><defs><linearGradient id="grad2_1" x1="0%" y1="0%" x2="56.3%" y2="100%"><stop offset="14.444444444444446%" stop-color="#ffffff" stop-opacity="1"></stop><stop offset="85.55555555555554%" stop-color="#42bfd0" stop-opacity="1"></stop></linearGradient></defs><g transform="translate(960, 0)"><path d="M0 324C-27.4 265.4 -54.8 206.7 -108 187.1C-161.2 167.4 -240.3 186.7 -280.6 162C-320.9 137.3 -322.4 68.7 -324 0L0 0Z" fill="#addfe7"></path><path d="M0 162C-13.7 132.7 -27.4 103.4 -54 93.5C-80.6 83.7 -120.1 93.3 -140.3 81C-160.4 68.7 -161.2 34.3 -162 0L0 0Z" fill="#42bfd0"></path></g><g transform="translate(0, 540)"><path d="M0 -324C31.4 -272.3 62.8 -220.6 115.5 -200.1C168.2 -179.5 242.3 -190.1 280.6 -162C318.9 -133.9 321.4 -66.9 324 0L0 0Z" fill="#addfe7"></path><path d="M0 -162C15.7 -136.1 31.4 -110.3 57.7 -100C84.1 -89.8 121.1 -95.1 140.3 -81C159.4 -66.9 160.7 -33.5 162 0L0 0Z" fill="#42bfd0"></path></g></svg>