<svg id="visual" viewBox="0 0 900 300" width="900" height="600" xmlns="http://www.w3.org/2000/svg" xmlns:xlink="http://www.w3.org/1999/xlink" version="1.1"><rect x="0" y="0" width="900" height="600" fill="#ffffff"></rect><defs><linearGradient id="grad1_0" x1="33.3%" y1="0%" x2="100%" y2="100%"><stop offset="20%" stop-color="#77d8c0" stop-opacity="1"></stop><stop offset="80%" stop-color="#77d8c0" stop-opacity="1"></stop></linearGradient></defs><defs><linearGradient id="grad1_1" x1="33.3%" y1="0%" x2="100%" y2="100%"><stop offset="20%" stop-color="#77d8c0" stop-opacity="1"></stop><stop offset="80%" stop-color="#ffffff" stop-opacity="1"></stop></linearGradient></defs><defs><linearGradient id="grad2_0" x1="0%" y1="0%" x2="66.7%" y2="100%"><stop offset="20%" stop-color="#77d8c0" stop-opacity="1"></stop><stop offset="80%" stop-color="#77d8c0" stop-opacity="1"></stop></linearGradient></defs><defs><linearGradient id="grad2_1" x1="0%" y1="0%" x2="66.7%" y2="100%"><stop offset="20%" stop-color="#ffffff" stop-opacity="1"></stop><stop offset="80%" stop-color="#77d8c0" stop-opacity="1"></stop></linearGradient></defs><g transform="translate(900, 0)"><path d="M0 216.3C-31.3 213.9 -62.6 211.5 -80 193.1C-97.3 174.7 -100.7 140.2 -121.6 121.6C-142.6 103.1 -181.1 100.4 -199.9 82.8C-218.6 65.2 -217.5 32.6 -216.3 0L0 0Z" fill="#bfecdf"></path><path d="M0 108.2C-15.7 107 -31.3 105.8 -40 96.5C-48.7 87.3 -50.3 70.1 -60.8 60.8C-71.3 51.5 -90.6 50.2 -99.9 41.4C-109.3 32.6 -108.7 16.3 -108.2 0L0 0Z" fill="#77d8c0"></path></g><g transform="translate(0, 600)"><path d="M0 -216.3C27.8 -213.5 55.6 -210.7 82.8 -199.9C110 -189 136.6 -170.1 145 -145C153.4 -119.8 143.6 -88.3 152.4 -63.1C161.3 -37.9 188.8 -19 216.3 0L0 0Z" fill="#bfecdf"></path><path d="M0 -108.2C13.9 -106.8 27.8 -105.4 41.4 -99.9C55 -94.5 68.3 -85.1 72.5 -72.5C76.7 -59.9 71.8 -44.2 76.2 -31.6C80.7 -19 94.4 -9.5 108.2 0L0 0Z" fill="#77d8c0"></path></g></svg>