<svg id="visual" viewBox="0 0 600 600" width="600" height="300" xmlns="http://www.w3.org/2000/svg" xmlns:xlink="http://www.w3.org/1999/xlink" version="1.1"><rect x="0" y="0" width="600" height="900" fill="#ffffff"></rect><defs><linearGradient id="grad1_0" x1="0%" y1="0%" x2="100%" y2="100%"><stop offset="30%" stop-color="#77d8c0" stop-opacity="1"></stop><stop offset="70%" stop-color="#77d8c0" stop-opacity="1"></stop></linearGradient></defs><defs><linearGradient id="grad1_1" x1="0%" y1="0%" x2="100%" y2="100%"><stop offset="30%" stop-color="#77d8c0" stop-opacity="1"></stop><stop offset="70%" stop-color="#ffffff" stop-opacity="1"></stop></linearGradient></defs><defs><linearGradient id="grad2_0" x1="0%" y1="0%" x2="100%" y2="100%"><stop offset="30%" stop-color="#77d8c0" stop-opacity="1"></stop><stop offset="70%" stop-color="#77d8c0" stop-opacity="1"></stop></linearGradient></defs><defs><linearGradient id="grad2_1" x1="0%" y1="0%" x2="100%" y2="100%"><stop offset="30%" stop-color="#ffffff" stop-opacity="1"></stop><stop offset="70%" stop-color="#77d8c0" stop-opacity="1"></stop></linearGradient></defs><g transform="translate(600, 0)"><path d="M0 216.3C-32.7 215.9 -65.5 215.5 -80.7 194.9C-96 174.3 -93.8 133.6 -114.6 114.6C-135.3 95.5 -179.1 98.3 -199.9 82.8C-220.7 67.3 -218.5 33.7 -216.3 0L0 0Z" fill="#bfecdf"></path><path d="M0 108.2C-16.4 108 -32.7 107.8 -40.4 97.5C-48 87.2 -46.9 66.8 -57.3 57.3C-67.7 47.8 -89.5 49.1 -99.9 41.4C-110.3 33.7 -109.2 16.8 -108.2 0L0 0Z" fill="#77d8c0"></path></g><g transform="translate(0, 900)"><path d="M0 -216.3C28.9 -214.2 57.7 -212.1 82.8 -199.9C107.8 -187.7 129.1 -165.4 142.1 -142.1C155.1 -118.9 159.9 -94.6 170.9 -70.8C181.9 -46.9 199.1 -23.5 216.3 0L0 0Z" fill="#bfecdf"></path><path d="M0 -108.2C14.4 -107.1 28.9 -106 41.4 -99.9C53.9 -93.8 64.6 -82.7 71.1 -71.1C77.6 -59.4 80 -47.3 85.5 -35.4C91 -23.5 99.6 -11.7 108.2 0L0 0Z" fill="#77d8c0"></path></g></svg>