<?xml version="1.0" encoding="UTF-8"?>
<svg xmlns="http://www.w3.org/2000/svg" xmlns:xlink="http://www.w3.org/1999/xlink"   viewBox="0 0 192 192" version="1.1">
<g>
<path style=" stroke:none;fill-rule:nonzero;fill-opacity:1;" fill="#009fb1" d="M 183.824219 145.050781 C 175.199219 137.851562 160.5 131.550781 140.324219 126.300781 C 131.847656 124.125 124.199219 122.550781 119.023438 121.574219 C 123.148438 118.5 129.972656 112.648438 128.773438 107.550781 C 128.472656 106.351562 127.722656 105.375 126.75 104.699219 C 134.324219 97.199219 137.550781 90.972656 136.425781 86.097656 C 136.125 84.898438 135.375 84.074219 134.324219 83.699219 C 133.5 83.472656 132.675781 83.550781 131.847656 83.773438 C 133.121094 81 133.949219 78.375 134.472656 75.898438 C 136.273438 67.046875 135.074219 60.148438 131.621094 59.097656 C 130.871094 58.871094 128.472656 58.496094 126.820312 62.699219 C 126.445312 63.675781 126.070312 64.722656 125.621094 65.847656 C 125.546875 65.996094 125.546875 66.074219 125.472656 66.222656 C 125.398438 61.796875 125.097656 56.097656 124.421875 50.773438 C 124.421875 50.546875 121.648438 30.824219 116.171875 30.824219 C 116.171875 30.824219 116.097656 30.824219 116.023438 30.824219 C 113.398438 30.972656 112.273438 34.800781 112.125 43.949219 C 112.050781 47.925781 111.824219 51.75 111.523438 55.5 C 110.546875 51.148438 109.125 45.675781 107.398438 40.574219 C 107.324219 40.347656 100.574219 21.222656 95.171875 22.648438 C 92.621094 23.324219 92.246094 27.296875 93.972656 36.296875 C 94.871094 41.023438 95.472656 45.597656 95.847656 50.023438 C 94.796875 46.875 93.523438 43.421875 92.097656 40.273438 C 92.023438 40.125 83.773438 21.523438 78.523438 23.398438 C 76.046875 24.296875 75.972656 28.273438 78.449219 37.125 C 80.023438 43.050781 81.148438 48.824219 81.972656 54.226562 C 80.097656 50.25 77.621094 45.152344 74.847656 40.652344 C 74.773438 40.503906 64.121094 23.175781 59.171875 25.726562 C 56.847656 26.925781 57.296875 30.902344 60.898438 39.300781 C 63.75 45.902344 65.773438 52.425781 67.421875 58.351562 C 64.421875 54.828125 59.996094 49.953125 55.496094 45.828125 C 52.046875 42.679688 48.070312 39.679688 44.695312 37.652344 C 38.996094 34.351562 37.195312 35.027344 36.296875 35.925781 C 34.347656 37.726562 35.996094 41.402344 41.773438 48.527344 C 48.148438 56.628906 53.25 64.726562 57.074219 71.925781 C 53.625 68.699219 49.949219 65.777344 46.273438 63 C 43.796875 61.199219 41.472656 59.550781 39.296875 58.199219 C 39.148438 58.125 21.898438 47.324219 18.597656 51.824219 C 17.023438 53.925781 19.199219 57.222656 26.171875 63.222656 C 30.671875 67.121094 34.722656 71.097656 38.320312 75.074219 C 36.070312 73.949219 33.894531 72.972656 31.871094 72.148438 C 31.796875 72.074219 12.972656 64.5 10.496094 69.523438 C 9.296875 71.921875 12.070312 74.773438 19.945312 79.421875 C 24.746094 82.273438 29.46875 85.421875 33.96875 88.945312 C 32.542969 88.570312 31.195312 88.269531 29.84375 87.96875 C 29.617188 87.96875 9.742188 83.917969 8.242188 89.242188 C 7.492188 91.792969 10.71875 94.117188 19.34375 97.265625 C 21.445312 98.015625 23.542969 98.839844 25.644531 99.742188 C 21.292969 100.71875 6.894531 104.390625 7.417969 109.117188 C 7.71875 111.742188 11.617188 112.640625 20.769531 112.191406 C 22.792969 112.117188 24.894531 112.042969 26.917969 112.042969 C 26.019531 112.492188 25.117188 112.867188 24.367188 113.242188 C 24.21875 113.316406 9.441406 120.742188 11.316406 125.167969 C 11.765625 126.21875 12.667969 126.742188 14.390625 126.742188 C 16.191406 126.742188 18.890625 126.140625 22.714844 124.867188 C 23.988281 124.417969 25.265625 124.042969 26.613281 123.667969 C 27.886719 124.644531 30.8125 125.992188 37.261719 125.992188 C 38.386719 125.992188 39.660156 125.992188 41.085938 125.84375 C 42.660156 127.644531 47.6875 131.617188 59.3125 129.894531 C 60.960938 129.667969 62.238281 130.042969 63.289062 131.167969 C 68.613281 136.417969 67.414062 155.242188 66.515625 161.992188 C 66.441406 162.816406 66.964844 163.566406 67.867188 163.71875 C 67.941406 163.71875 68.015625 163.71875 68.09375 163.71875 C 68.84375 163.71875 69.519531 163.195312 69.59375 162.367188 C 69.742188 161.316406 72.96875 136.34375 65.46875 128.917969 C 63.667969 127.117188 61.492188 126.441406 58.867188 126.816406 C 51.890625 127.792969 47.765625 126.589844 45.441406 125.316406 C 46.640625 125.167969 47.917969 125.015625 49.265625 124.792969 C 50.089844 124.644531 50.691406 123.894531 50.539062 123.066406 C 50.390625 122.242188 49.640625 121.640625 48.8125 121.792969 C 39.585938 123.292969 34.335938 122.917969 31.488281 122.316406 C 35.386719 121.339844 39.363281 120.667969 43.414062 120.066406 C 44.238281 119.992188 44.839844 119.167969 44.765625 118.339844 C 44.691406 117.515625 43.867188 116.914062 43.039062 116.988281 C 36.515625 117.886719 30.140625 119.238281 24.0625 121.113281 C 23.835938 119.761719 23.085938 118.636719 22.261719 117.8125 C 23.386719 117.136719 24.511719 116.539062 25.785156 115.863281 C 28.035156 114.738281 31.410156 113.238281 34.410156 112.039062 C 35.683594 112.113281 36.960938 112.1875 38.234375 112.265625 C 38.234375 112.265625 38.308594 112.265625 38.308594 112.265625 C 39.132812 112.265625 39.808594 111.664062 39.808594 110.839844 C 39.882812 110.015625 39.285156 109.265625 38.382812 109.191406 C 32.457031 108.742188 26.53125 108.667969 20.832031 108.964844 C 20.90625 107.316406 20.308594 105.589844 19.632812 104.390625 C 21.882812 103.640625 24.507812 102.964844 27.433594 102.441406 C 28.410156 102.292969 29.382812 102.066406 30.507812 101.917969 C 34.78125 103.941406 39.058594 106.191406 43.257812 108.667969 C 43.484375 108.816406 43.78125 108.894531 44.007812 108.894531 C 44.53125 108.894531 45.058594 108.59375 45.359375 108.144531 C 45.808594 107.394531 45.507812 106.496094 44.835938 106.042969 C 36.359375 100.71875 23.984375 95.691406 20.386719 94.34375 C 20.011719 94.195312 19.636719 94.042969 19.261719 93.894531 C 20.160156 92.84375 21.0625 91.417969 21.363281 89.695312 C 23.761719 89.921875 26.386719 90.296875 29.238281 90.894531 C 32.464844 91.570312 36.0625 92.542969 39.964844 93.667969 C 42.363281 95.691406 44.765625 97.867188 47.015625 100.117188 C 47.316406 100.417969 47.691406 100.566406 48.066406 100.566406 C 48.441406 100.566406 48.890625 100.417969 49.191406 100.117188 C 49.792969 99.515625 49.792969 98.542969 49.191406 97.941406 C 41.015625 90.066406 32.316406 83.242188 23.089844 77.617188 C 24.738281 76.71875 26.238281 75.367188 26.691406 73.34375 C 28.042969 73.792969 29.390625 74.320312 30.816406 74.917969 C 34.714844 76.492188 39.066406 78.667969 43.792969 81.21875 C 48.292969 86.695312 51.816406 91.867188 54.519531 96.070312 C 54.820312 96.519531 55.34375 96.746094 55.792969 96.746094 C 56.09375 96.746094 56.316406 96.671875 56.617188 96.519531 C 57.292969 96.070312 57.515625 95.09375 57.066406 94.417969 C 51.890625 86.242188 43.265625 74.394531 30.964844 63.292969 C 32.539062 62.769531 34.191406 61.644531 35.238281 59.242188 C 36.0625 59.691406 36.886719 60.21875 37.714844 60.742188 C 39.816406 62.09375 42.140625 63.667969 44.539062 65.390625 C 50.390625 69.742188 56.015625 74.691406 61.265625 80.089844 C 62.914062 83.691406 64.191406 86.914062 65.164062 89.390625 C 65.390625 89.992188 65.988281 90.367188 66.589844 90.367188 C 66.738281 90.367188 66.964844 90.367188 67.113281 90.292969 C 67.9375 89.992188 68.3125 89.09375 68.011719 88.34375 C 64.863281 79.867188 57.660156 63.367188 44.613281 47.242188 C 46.113281 46.792969 47.613281 45.890625 48.8125 44.167969 C 50.3125 45.292969 51.8125 46.566406 53.386719 48.066406 C 61.261719 55.417969 68.910156 65.015625 68.988281 65.089844 C 70.789062 73.339844 71.539062 80.316406 71.914062 84.890625 C 71.988281 85.714844 72.664062 86.316406 73.414062 86.316406 C 73.414062 86.316406 73.488281 86.316406 73.5625 86.316406 C 74.386719 86.242188 75.0625 85.492188 74.988281 84.667969 C 74.3125 75.816406 72.0625 58.417969 64.339844 39.667969 C 64.640625 39.667969 64.863281 39.742188 65.164062 39.742188 C 65.6875 39.742188 66.214844 39.667969 66.738281 39.515625 C 67.789062 39.214844 68.6875 38.691406 69.4375 38.015625 C 70.335938 39.289062 71.238281 40.714844 72.136719 42.140625 C 77.6875 51.367188 82.5625 62.839844 82.9375 63.515625 C 84.136719 78.589844 82.710938 89.164062 82.710938 89.316406 C 82.636719 90.140625 83.160156 90.890625 83.984375 91.042969 C 84.058594 91.042969 84.132812 91.042969 84.210938 91.042969 C 84.960938 91.042969 85.636719 90.519531 85.710938 89.691406 C 85.710938 89.464844 88.859375 65.839844 81.886719 38.542969 C 82.113281 38.542969 82.335938 38.542969 82.488281 38.542969 C 84.0625 38.542969 85.789062 38.167969 87.0625 37.042969 C 87.738281 38.394531 88.488281 39.894531 89.164062 41.46875 C 92.765625 49.71875 95.464844 59.394531 96.289062 62.394531 C 96.363281 77.84375 94.113281 88.570312 94.039062 88.71875 C 93.890625 89.542969 94.414062 90.367188 95.238281 90.519531 C 95.3125 90.519531 95.464844 90.519531 95.539062 90.519531 C 96.214844 90.519531 96.890625 90.070312 97.039062 89.320312 C 97.113281 89.09375 102.0625 65.84375 97.265625 38.09375 C 97.941406 38.242188 98.765625 38.320312 99.589844 38.320312 C 100.640625 38.320312 101.839844 38.171875 102.890625 37.644531 C 103.414062 38.84375 103.867188 40.121094 104.316406 41.46875 C 106.867188 48.96875 108.667969 57.445312 109.492188 61.492188 C 109.71875 62.542969 109.941406 63.890625 110.09375 64.792969 C 107.167969 82.792969 101.84375 95.09375 101.769531 95.242188 C 101.394531 95.992188 101.769531 96.890625 102.519531 97.265625 C 102.746094 97.339844 102.96875 97.414062 103.121094 97.414062 C 103.722656 97.414062 104.246094 97.039062 104.546875 96.515625 C 104.621094 96.289062 113.921875 74.839844 114.972656 47.089844 C 116.246094 47.839844 117.746094 48.441406 119.398438 48.441406 C 119.847656 48.441406 120.296875 48.367188 120.75 48.292969 C 120.898438 49.191406 121.050781 50.167969 121.199219 51.144531 C 122.472656 60.894531 122.25 71.996094 122.25 73.945312 C 119.925781 79.195312 116.476562 85.71875 110.550781 93.96875 C 110.027344 94.644531 110.25 95.617188 110.925781 96.070312 C 111.601562 96.519531 112.574219 96.371094 113.027344 95.695312 C 120.753906 84.894531 124.351562 77.09375 126.753906 71.019531 C 127.203125 71.46875 127.804688 71.84375 128.480469 72.144531 C 129.15625 72.445312 129.832031 72.519531 130.582031 72.519531 C 130.957031 72.519531 131.40625 72.519531 131.78125 72.445312 C 131.632812 73.34375 131.480469 74.246094 131.332031 75.21875 C 128.632812 88.34375 115.132812 102.292969 114.980469 102.445312 C 114.378906 103.046875 114.378906 104.019531 114.980469 104.621094 C 115.28125 104.921875 115.65625 105.070312 116.03125 105.070312 C 116.40625 105.070312 116.855469 104.921875 117.082031 104.621094 C 117.230469 104.472656 120.683594 100.945312 124.582031 95.621094 C 125.480469 94.347656 126.382812 93.144531 127.132812 91.871094 C 127.359375 92.246094 127.582031 92.695312 127.882812 93.070312 C 128.632812 93.96875 129.609375 94.570312 130.882812 94.871094 C 126.382812 101.847656 116.859375 109.421875 112.359375 112.644531 C 111.683594 113.167969 111.460938 114.070312 111.984375 114.746094 C 112.285156 115.195312 112.734375 115.421875 113.257812 115.421875 C 113.558594 115.421875 113.859375 115.347656 114.15625 115.121094 C 114.382812 114.972656 118.730469 111.746094 123.757812 107.394531 C 124.207031 106.945312 124.734375 107.09375 124.957031 107.246094 C 125.332031 107.472656 125.632812 107.769531 125.707031 108.222656 C 126.53125 111.523438 119.78125 117.523438 114.683594 120.824219 C 113.257812 120.597656 112.433594 120.449219 112.433594 120.449219 C 112.058594 120.375 111.609375 120.449219 111.308594 120.75 L 102.910156 126.898438 C 102.535156 127.199219 102.308594 127.574219 102.308594 128.023438 C 102.308594 128.472656 102.457031 128.921875 102.832031 129.222656 L 107.558594 133.421875 C 107.859375 133.648438 108.160156 133.796875 108.535156 133.796875 C 108.984375 133.796875 109.359375 133.796875 109.808594 133.796875 C 105.082031 139.796875 104.332031 148.195312 108.082031 155.023438 C 111.757812 161.699219 114.683594 168.296875 114.683594 168.375 C 114.910156 168.976562 115.507812 169.273438 116.109375 169.273438 C 116.335938 169.273438 116.558594 169.273438 116.710938 169.125 C 117.460938 168.75 117.835938 167.851562 117.460938 167.101562 C 117.460938 167.027344 114.460938 160.277344 110.710938 153.453125 C 107.109375 146.929688 108.460938 138.753906 113.859375 133.804688 C 153.085938 134.855469 181.960938 147.453125 182.257812 147.605469 C 182.484375 147.679688 182.707031 147.753906 182.859375 147.753906 C 183.683594 147.753906 184.359375 147.078125 184.359375 146.253906 C 184.433594 145.804688 184.210938 145.355469 183.835938 145.054688 Z M 21 122.25 C 17.476562 123.375 15.601562 123.675781 14.699219 123.675781 C 15.449219 122.777344 17.175781 121.277344 19.574219 119.625 C 20.25 120.148438 21.148438 121.125 21 122.25 Z M 17.851562 109.199219 C 13.425781 109.273438 11.550781 108.898438 10.875 108.597656 C 11.699219 107.847656 13.800781 106.648438 16.875 105.523438 C 17.398438 106.648438 18.074219 108.222656 17.851562 109.199219 Z M 16.277344 92.773438 C 13.277344 91.421875 12.003906 90.597656 11.476562 90.074219 C 12.527344 89.699219 14.925781 89.472656 18.226562 89.550781 C 17.925781 90.976562 16.953125 92.101562 16.277344 92.777344 Z M 19.800781 75.75 C 15.449219 73.050781 14.027344 71.550781 13.5 70.875 C 14.925781 70.648438 18.75 71.101562 23.699219 72.449219 C 23.472656 74.472656 20.925781 75.449219 19.800781 75.75 Z M 29.925781 60.449219 C 29.101562 60.675781 28.351562 60.675781 27.976562 60.675781 C 23.25 56.550781 21.828125 54.601562 21.453125 53.777344 C 23.027344 53.777344 27.304688 55.128906 32.554688 57.828125 C 31.953125 59.179688 31.054688 60.078125 29.929688 60.453125 Z M 42.300781 44.550781 C 39.449219 40.875 38.699219 39.074219 38.476562 38.324219 C 39.75 38.550781 42.675781 39.972656 46.203125 42.449219 C 45.078125 44.324219 43.203125 44.550781 42.304688 44.550781 Z M 66 36.601562 C 64.800781 36.902344 63.449219 36.453125 62.851562 36.152344 C 60.976562 31.503906 60.675781 29.476562 60.675781 28.652344 C 61.949219 29.253906 64.574219 31.726562 67.574219 35.550781 C 67.125 36.074219 66.597656 36.449219 66 36.601562 Z M 81.148438 35.476562 C 79.648438 29.777344 79.648438 27.453125 79.722656 26.550781 C 80.847656 27.300781 83.171875 30.074219 85.574219 34.277344 C 84.675781 35.851562 82.347656 35.628906 81.148438 35.476562 Z M 96.75 34.875 C 95.699219 29.023438 95.851562 26.699219 96.074219 25.875 C 97.273438 26.851562 99.523438 30.074219 101.773438 34.949219 C 100.199219 35.773438 97.949219 35.25 96.75 34.875 Z M 115.125 43.351562 C 115.199219 37.277344 115.875 34.953125 116.25 34.125 C 117.300781 35.324219 119.023438 39.523438 120.300781 45.300781 C 117.976562 45.824219 115.949219 44.175781 115.125 43.351562 Z M 129.75 69.375 C 128.925781 69.074219 128.398438 68.324219 128.101562 67.800781 C 128.175781 67.5 128.328125 67.199219 128.402344 66.902344 C 128.777344 65.851562 129.152344 64.800781 129.527344 63.828125 C 130.050781 62.554688 130.503906 62.101562 130.652344 62.027344 C 131.175781 62.328125 132.300781 64.503906 132.078125 69.226562 C 131.179688 69.601562 130.351562 69.601562 129.753906 69.375 Z M 130.273438 91.125 C 129.523438 90.226562 129.597656 88.949219 129.597656 88.425781 C 131.621094 86.851562 132.972656 86.550781 133.199219 86.699219 C 133.199219 86.699219 133.273438 86.773438 133.273438 86.925781 C 133.648438 88.5 133.273438 90.300781 132.449219 92.175781 C 131.550781 91.949219 130.800781 91.652344 130.273438 91.125 Z M 112.574219 123.601562 C 115.273438 124.050781 126.523438 125.851562 139.5 129.226562 C 143.476562 130.277344 147.226562 131.328125 150.75 132.453125 C 142.949219 130.503906 135.75 129.152344 129.824219 128.328125 C 120.523438 127.054688 113.023438 126.679688 108.449219 126.601562 Z M 107.847656 129.675781 C 113.996094 129.824219 126.597656 130.425781 141.597656 133.5 C 131.921875 131.925781 120.898438 130.800781 109.121094 130.800781 Z M 107.847656 129.675781 "/>
<path style=" stroke:none;fill-rule:nonzero;fill-opacity:1;" fill="#009fb1" d="M 96.226562 116.550781 C 93.527344 116.550781 90.601562 120 89.777344 121.050781 C 89.328125 121.574219 89.328125 122.402344 89.777344 123 C 90.601562 124.050781 93.601562 127.5 96.226562 127.5 C 99.226562 127.5 101.175781 123.523438 101.550781 122.699219 C 101.699219 122.324219 101.699219 121.875 101.550781 121.425781 C 101.175781 120.527344 99.226562 116.550781 96.226562 116.550781 Z M 96.226562 124.351562 C 95.550781 124.351562 94.125 123.226562 92.925781 121.953125 C 94.125 120.679688 95.550781 119.554688 96.226562 119.554688 C 96.75 119.554688 97.726562 120.753906 98.402344 121.953125 C 97.800781 123.226562 96.753906 124.351562 96.226562 124.351562 Z M 96.226562 124.351562 "/>
<path style="fill:none;stroke-width:5;stroke-linecap:butt;stroke-linejoin:miter;stroke:rgb(0%,62.745098%,69.411765%);stroke-opacity:1;stroke-miterlimit:4;" fill="#000000" d="M 54.526042 52.083333 C 54.526042 53.65625 55.020833 53.973958 55.8125 54.395833 C 56.5625 54.796875 57.234375 55.083333 58.052083 55.083333 C 59.026042 55.083333 59.765625 55.411458 59.776042 56.255208 C 59.791667 57.109375 60.208333 58.348958 59.609375 58.833333 C 58.942708 59.364583 57.901042 58.838542 56.989583 58.833333 C 56.052083 58.828125 56.03125 57.932292 56.026042 57.109375 C 56.020833 56.192708 55.708333 55.432292 55.28125 54.598958 C 54.895833 53.848958 54.536458 53.130208 54.401042 52.208333 L 53.552083 52.083333 L 52.651042 52.083333 L 52.213542 51.546875 " transform="matrix(0.75,0,0,0.75,0,0)"/>
<path style="fill:none;stroke-width:5;stroke-linecap:butt;stroke-linejoin:miter;stroke:rgb(0%,62.745098%,69.411765%);stroke-opacity:1;stroke-miterlimit:4;" fill="#000000" d="M 83.026042 37.833333 C 83.026042 39.458333 83.026042 40.307292 83.026042 41.192708 C 83.026042 42.041667 82.833333 43.010417 83.239583 43.770833 C 83.614583 44.473958 83.484375 45.244792 83.817708 46.125 C 84.145833 46.984375 84.791667 47.5625 85.651042 47.583333 C 86.5625 47.604167 87.489583 47.421875 87.526042 46.541667 C 87.5625 45.692708 87.322917 44.734375 86.734375 44.098958 C 86.125 43.442708 85.197917 43.171875 84.359375 43.083333 L 83.536458 42.916667 L 82.807292 42.552083 " transform="matrix(0.75,0,0,0.75,0,0)"/>
<path style="fill:none;stroke-width:5;stroke-linecap:butt;stroke-linejoin:miter;stroke:rgb(0%,62.745098%,69.411765%);stroke-opacity:1;stroke-miterlimit:4;" fill="#000000" d="M 107.776042 36.333333 C 107.776042 37.90625 107.776042 38.807292 107.776042 39.666667 C 107.776042 40.567708 107.776042 41.453125 107.776042 42.40625 C 107.776042 43.229167 107.953125 44.083333 108.598958 44.65625 C 109.3125 45.286458 109.875 45.848958 110.484375 46.083333 C 111.317708 46.401042 112.276042 46.03125 112.276042 45.192708 C 112.276042 44.239583 112.276042 43.375 112.276042 42.557292 L 112.25 41.588542 L 111.401042 41.578125 L 110.557292 41.578125 " transform="matrix(0.75,0,0,0.75,0,0)"/>
<path style="fill:none;stroke-width:5;stroke-linecap:butt;stroke-linejoin:miter;stroke:rgb(0%,62.745098%,69.411765%);stroke-opacity:1;stroke-miterlimit:4;" fill="#000000" d="M 129.526042 37.083333 C 129.526042 38.65625 129.692708 39.567708 129.958333 40.223958 C 130.338542 41.15625 130.8125 41.729167 131.03125 42.5625 C 131.255208 43.411458 131.583333 44.130208 131.791667 44.963542 C 132.015625 45.833333 132.010417 46.166667 131.244792 45.822917 C 130.359375 45.427083 129.973958 44.744792 129.526042 43.90625 C 129.166667 43.229167 129.145833 42.125 128.776042 42.125 C 127.807292 42.125 128.776042 43.96875 128.776042 44.817708 C 128.776042 45.703125 129.260417 46.09375 130.125 46.09375 C 131.098958 46.09375 131.989583 46.09375 132.822917 46.09375 L 133.697917 46.067708 L 134.026042 45.270833 " transform="matrix(0.75,0,0,0.75,0,0)"/>
<path style="fill:none;stroke-width:5;stroke-linecap:butt;stroke-linejoin:miter;stroke:rgb(0%,62.745098%,69.411765%);stroke-opacity:1;stroke-miterlimit:4;" fill="#000000" d="M 107.776042 35.583333 C 106.317708 35.140625 106.276042 36.010417 106.276042 36.958333 C 106.276042 37.833333 106.276042 38.65625 106.276042 39.546875 C 106.276042 40.458333 105.614583 41.979167 106.276042 41.979167 C 107.151042 41.979167 105.947917 40.145833 106.317708 39.296875 C 106.635417 38.567708 107.541667 37.875 108.307292 38.104167 C 109 38.3125 109.515625 39.223958 110.098958 40.067708 C 110.536458 40.697917 111.072917 41.53125 110.984375 40.984375 C 110.838542 40.072917 110.677083 39.276042 110.34375 38.447917 C 109.994792 37.59375 110.078125 36.53125 109.276042 36.338542 C 108.473958 36.145833 107.473958 36.265625 106.984375 36.864583 C 106.4375 37.541667 106.588542 38.994792 105.953125 38.984375 C 105.078125 38.96875 105.520833 37.354167 105.520833 36.489583 L 105.520833 35.552083 " transform="matrix(0.75,0,0,0.75,0,0)"/>
<path style="fill:none;stroke-width:5;stroke-linecap:butt;stroke-linejoin:miter;stroke:rgb(0%,62.745098%,69.411765%);stroke-opacity:1;stroke-miterlimit:4;" fill="#000000" d="M 128.026042 33.333333 C 127.276042 34.083333 127.260417 34.984375 127.276042 35.885417 C 127.291667 36.760417 127.994792 37.296875 128.026042 38.135417 C 128.057292 39.005208 127.828125 39.885417 128.026042 40.833333 C 128.1875 41.614583 128.5625 42.270833 128.989583 43.020833 C 129.364583 43.677083 129.526042 42.723958 129.526042 41.765625 C 129.526042 40.833333 129.192708 39.578125 129.916667 39.364583 C 130.703125 39.135417 131.369792 40.359375 131.848958 41.072917 C 132.296875 41.739583 132.765625 42.645833 133.135417 43.244792 L 133.598958 44.005208 L 133.994792 44.927083 L 134.026042 45.869792 " transform="matrix(0.75,0,0,0.75,0,0)"/>
<path style="fill:none;stroke-width:5;stroke-linecap:butt;stroke-linejoin:miter;stroke:rgb(0%,62.745098%,69.411765%);stroke-opacity:1;stroke-miterlimit:4;" fill="#000000" d="M 29.026042 71.583333 C 29.692708 72.869792 30.5625 73 31.427083 73.25 C 32.265625 73.489583 33.135417 73.682292 33.916667 73.895833 C 34.822917 74.145833 35.572917 74.411458 36.53125 74.583333 C 37.276042 74.71875 37.604167 75.661458 38.359375 76.057292 C 39.166667 76.479167 39.833333 76.958333 39.53125 77.807292 C 39.307292 78.447917 37.348958 77.291667 37.348958 78.333333 C 37.348958 79.15625 39.046875 78.333333 39.958333 78.333333 C 40.90625 78.333333 42.026042 78.802083 42.53125 78.208333 C 43.083333 77.5625 42.598958 76.229167 41.78125 76.083333 C 40.911458 75.932292 40.15625 76.484375 39.364583 77 C 38.609375 77.489583 38.057292 78.171875 37.239583 78.333333 C 36.380208 78.505208 35.395833 78.703125 34.598958 78.307292 C 33.838542 77.932292 33.333333 77.25 32.822917 76.567708 C 32.333333 75.916667 32.270833 74.875 31.640625 74.223958 C 31.072917 73.635417 30.40625 73.083333 29.932292 72.484375 L 29.302083 71.854167 " transform="matrix(0.75,0,0,0.75,0,0)"/>
<path style="fill:none;stroke-width:5;stroke-linecap:butt;stroke-linejoin:miter;stroke:rgb(0%,62.745098%,69.411765%);stroke-opacity:1;stroke-miterlimit:4;" fill="#000000" d="M 32.026042 97.083333 C 30.453125 97.083333 29.552083 97.0625 28.697917 97.083333 C 27.791667 97.104167 27.098958 97.6875 26.776042 98.359375 C 26.390625 99.166667 25.723958 99.364583 24.822917 99.333333 C 23.984375 99.302083 23.578125 98.416667 22.947917 97.760417 C 22.380208 97.161458 21.447917 97.03125 20.895833 96.333333 C 20.369792 95.666667 18.78125 95.697917 19.057292 94.895833 C 19.15625 94.619792 20.005208 95.348958 20.8125 95.536458 C 21.609375 95.723958 22.59375 95.578125 23.46875 95.578125 C 24.369792 95.578125 25.270833 95.703125 26.020833 96.203125 L 26.729167 96.59375 L 27.369792 97.078125 " transform="matrix(0.75,0,0,0.75,0,0)"/>
<path style="fill:none;stroke-width:5;stroke-linecap:butt;stroke-linejoin:miter;stroke:rgb(0%,62.745098%,69.411765%);stroke-opacity:1;stroke-miterlimit:4;" fill="#000000" d="M 21.526042 118.833333 C 20.291667 119.317708 19.5 119.583333 18.526042 119.583333 C 17.651042 119.583333 16.916667 119.421875 16.213542 119.046875 C 15.4375 118.635417 14.505208 118.807292 14.927083 119.046875 C 15.630208 119.447917 16.546875 119.6875 17.244792 120.067708 C 18.088542 120.526042 18.75 121.0625 19.635417 121.083333 C 20.552083 121.104167 21.375 121.083333 22.338542 121.083333 L 23.25 121.083333 " transform="matrix(0.75,0,0,0.75,0,0)"/>
<path style="fill:none;stroke-width:5;stroke-linecap:butt;stroke-linejoin:miter;stroke:rgb(0%,62.745098%,69.411765%);stroke-opacity:1;stroke-miterlimit:4;" fill="#000000" d="M 50.026042 50.583333 C 51.598958 50.583333 52.276042 50.848958 52.276042 51.692708 L 51.901042 52.473958 L 51.541667 53.208333 L 51.526042 54.119792 " transform="matrix(0.75,0,0,0.75,0,0)"/>
<path style="fill:none;stroke-width:5;stroke-linecap:butt;stroke-linejoin:miter;stroke:rgb(0%,62.745098%,69.411765%);stroke-opacity:1;stroke-miterlimit:4;" fill="#000000" d="M 23.026042 97.083333 C 24.598958 97.083333 25.572917 96.71875 26.385417 97.098958 C 27.15625 97.458333 27.75 98.098958 28.5 98.541667 L 29.026042 99.067708 L 29.489583 99.791667 " transform="matrix(0.75,0,0,0.75,0,0)"/>
<path style="fill:none;stroke-width:5;stroke-linecap:butt;stroke-linejoin:miter;stroke:rgb(0%,62.745098%,69.411765%);stroke-opacity:1;stroke-miterlimit:4;" fill="#000000" d="M 19.276042 118.083333 C 20.239583 117.333333 21.078125 117.333333 21.973958 117.333333 C 22.875 117.333333 23.807292 117.265625 24.505208 117.651042 C 25.166667 118.020833 26.166667 118.557292 25.635417 118.833333 C 24.838542 119.244792 23.776042 118.833333 22.953125 119 L 22.276042 119.567708 " transform="matrix(0.75,0,0,0.75,0,0)"/>
<path style="fill:none;stroke-width:5;stroke-linecap:butt;stroke-linejoin:miter;stroke:rgb(0%,62.745098%,69.411765%);stroke-opacity:1;stroke-miterlimit:4;" fill="#000000" d="M 155.026042 49.833333 C 155.026042 51.489583 154.864583 52.411458 155.088542 53.21875 C 155.338542 54.125 156.286458 54.583333 156.510417 55.458333 C 156.734375 56.34375 156.588542 55.833333 156.526042 54.932292 C 156.463542 54.078125 156.286458 53.130208 155.776042 52.458333 C 155.229167 51.739583 155.026042 50.973958 155.026042 50.125 C 155.026042 49.234375 155.026042 48.260417 155.026042 47.432292 C 155.026042 46.541667 155.026042 46.578125 155.026042 47.375 C 155.026042 48.302083 155.026042 49.234375 155.026042 50.052083 C 155.026042 50.96875 155.026042 51.854167 155.026042 52.682292 C 155.026042 53.65625 154.848958 54.567708 155.036458 55.380208 C 155.234375 56.255208 156.197917 56.296875 157.0625 56.578125 C 157.8125 56.822917 158.734375 57.96875 158.239583 58.765625 C 158.083333 59.015625 157.041667 58.911458 156.286458 58.661458 C 155.421875 58.380208 154.598958 57.864583 153.890625 57.541667 L 152.994792 57.328125 " transform="matrix(0.75,0,0,0.75,0,0)"/>
<path style="fill:none;stroke-width:5;stroke-linecap:butt;stroke-linejoin:miter;stroke:rgb(0%,62.745098%,69.411765%);stroke-opacity:1;stroke-miterlimit:4;" fill="#000000" d="M 174.526042 87.333333 C 174.526042 88.958333 174.526042 89.807292 174.526042 90.692708 C 174.526042 91.541667 174.973958 92.713542 174.3125 93.270833 C 173.671875 93.807292 172.411458 93.322917 172.276042 92.510417 C 172.130208 91.625 172.020833 90.71875 172.276042 89.833333 C 172.5 89.057292 173.479167 88.692708 174.135417 88.083333 C 174.661458 87.59375 174.932292 86.833333 175.567708 86.255208 C 176.192708 85.6875 176.026042 84.598958 175.427083 84.333333 L 172.734375 84.333333 " transform="matrix(0.75,0,0,0.75,0,0)"/>
<path style="fill:none;stroke-width:5;stroke-linecap:butt;stroke-linejoin:miter;stroke:rgb(0%,62.745098%,69.411765%);stroke-opacity:1;stroke-miterlimit:4;" fill="#000000" d="M 176.026042 115.833333 C 175.109375 116.75 174.505208 117.354167 173.927083 117.932292 C 173.296875 118.5625 173.598958 118.833333 174.541667 118.833333 C 175.427083 118.833333 176.239583 118.833333 177.166667 118.833333 C 178.052083 118.833333 179.015625 118.817708 179.026042 117.958333 C 179.03125 117.114583 178.635417 116.578125 177.75 116.583333 C 176.791667 116.588542 176.927083 117.546875 176.510417 118.307292 C 176.098958 119.057292 175.567708 119.723958 175.052083 120.515625 L 174.526042 121.255208 " transform="matrix(0.75,0,0,0.75,0,0)"/>
<path style="fill:none;stroke-width:5;stroke-linecap:butt;stroke-linejoin:miter;stroke:rgb(0%,62.745098%,69.411765%);stroke-opacity:1;stroke-miterlimit:4;" fill="#000000" d="M 20.026042 121.083333 C 21.041667 121.083333 21.942708 121.083333 22.802083 121.083333 L 23.765625 121.057292 L 23.776042 120.182292 " transform="matrix(0.75,0,0,0.75,0,0)"/>
<path style="fill:none;stroke-width:5;stroke-linecap:butt;stroke-linejoin:miter;stroke:rgb(0%,62.745098%,69.411765%);stroke-opacity:1;stroke-miterlimit:4;" fill="#000000" d="M 12.526042 145.083333 C 13.052083 143.848958 13.859375 143.583333 14.635417 143.265625 C 15.541667 142.895833 16.416667 142.734375 17.291667 142.833333 C 18.223958 142.942708 18.953125 143.260417 19.796875 143.625 C 20.598958 143.96875 21.432292 144.333333 22.3125 144.333333 C 23.171875 144.333333 24.130208 144.177083 24.395833 143.333333 C 24.661458 142.489583 25.15625 141.333333 24.520833 140.645833 C 23.958333 140.041667 22.802083 140.583333 21.942708 140.583333 L 20.109375 140.583333 " transform="matrix(0.75,0,0,0.75,0,0)"/>
<path style="fill:none;stroke-width:5;stroke-linecap:butt;stroke-linejoin:miter;stroke:rgb(0%,62.745098%,69.411765%);stroke-opacity:1;stroke-miterlimit:4;" fill="#000000" d="M 20.026042 163.083333 C 20.927083 163.833333 21.859375 163.911458 22.640625 163.619792 C 23.453125 163.317708 24.171875 162.609375 24.932292 162.317708 C 25.744792 162.010417 26.645833 161.614583 27.526042 161.583333 C 28.109375 161.5625 27.234375 161.583333 26.348958 161.583333 C 25.401042 161.583333 24.526042 161.583333 23.703125 161.75 L 22.953125 162.244792 " transform="matrix(0.75,0,0,0.75,0,0)"/>
<path style="fill:none;stroke-width:5;stroke-linecap:butt;stroke-linejoin:miter;stroke:rgb(0%,62.745098%,69.411765%);stroke-opacity:1;stroke-miterlimit:4;" fill="#000000" d="M 175.276042 118.083333 C 175.010417 119.541667 174.53125 120.109375 174.3125 121.020833 L 173.557292 121.354167 L 173.067708 122.0625 " transform="matrix(0.75,0,0,0.75,0,0)"/>
<path style="fill:none;stroke-width:5;stroke-linecap:butt;stroke-linejoin:miter;stroke:rgb(0%,62.745098%,69.411765%);stroke-opacity:1;stroke-miterlimit:4;" fill="#000000" d="M 15.526042 144.333333 C 14.552083 144.333333 14.354167 144.34375 15.135417 144.708333 L 15.916667 145.083333 L 16.802083 145.083333 " transform="matrix(0.75,0,0,0.75,0,0)"/>
<path style="fill:none;stroke-width:5;stroke-linecap:butt;stroke-linejoin:miter;stroke:rgb(0%,62.745098%,69.411765%);stroke-opacity:1;stroke-miterlimit:4;" fill="#000000" d="M 151.276042 216.333333 C 149.703125 216.333333 148.984375 216.333333 148.005208 216.333333 C 147.255208 216.333333 146.057292 216.333333 145.307292 216.333333 C 144.375 216.333333 143.520833 216.333333 142.635417 216.333333 C 141.697917 216.333333 140.921875 216.453125 140.005208 216.119792 C 139.140625 215.807292 138.3125 215.421875 137.776042 214.708333 C 137.260417 214.026042 136.588542 213.447917 135.885417 212.927083 C 135.213542 212.427083 134.588542 211.755208 134.109375 210.901042 C 133.682292 210.145833 133.125 208.859375 132.541667 209.255208 C 131.864583 209.713542 132.796875 210.9375 133.416667 211.578125 C 134.03125 212.21875 134.375 212.979167 134.776042 213.958333 C 135.067708 214.661458 135.484375 215.609375 135.833333 216.177083 C 136.34375 217 137.125 217.510417 137.901042 217.895833 C 138.661458 218.276042 139.557292 218.546875 140.322917 218.901042 C 141.171875 219.296875 142.015625 219.333333 143.020833 219.333333 C 143.739583 219.333333 144.328125 219.333333 143.546875 219.333333 C 142.78125 219.333333 141.651042 219.348958 141.010417 219.25 C 139.78125 219.0625 139 218.807292 138.578125 218.6875 C 137.71875 218.447917 136.880208 218.213542 135.541667 217.75 C 134.833333 217.5 133.901042 217.171875 133.104167 217.114583 C 132.286458 217.052083 131.364583 217.15625 130.395833 217.088542 C 129.515625 217.026042 128.703125 216.604167 127.947917 216.171875 C 127.182292 215.734375 126.338542 215.583333 125.666667 215.15625 C 124.927083 214.6875 124.770833 213.609375 123.895833 213.354167 C 123.072917 213.109375 123.666667 211.619792 122.770833 211.619792 C 122.427083 211.619792 122.755208 212.71875 122.770833 213.697917 C 122.786458 214.536458 123.265625 215.338542 123.760417 215.994792 C 124.307292 216.723958 124.739583 217.369792 125.53125 218.072917 C 126.098958 218.578125 127.015625 219.09375 127.729167 219.348958 C 128.625 219.671875 129.286458 220.348958 129.90625 220.838542 C 130.552083 221.348958 131.5 221.588542 131.151042 221.588542 C 130.255208 221.59375 129.473958 221.588542 128.526042 221.588542 C 127.765625 221.588542 126.765625 221.59375 125.755208 221.583333 C 125 221.578125 124.229167 221.588542 123.140625 221.463542 C 122.208333 221.354167 121.401042 221.130208 120.390625 220.713542 C 119.848958 220.489583 119.03125 220.114583 118.307292 219.703125 C 117.401042 219.1875 116.734375 218.463542 116.104167 217.989583 C 115.421875 217.479167 114.395833 217.078125 113.614583 216.796875 C 112.911458 216.541667 111.958333 216.125 111.255208 215.854167 C 110.348958 215.505208 109.567708 215.135417 108.96875 214.541667 C 108.291667 213.869792 107.473958 213.510417 106.791667 213.072917 C 106.015625 212.572917 105.447917 211.973958 105.541667 212.755208 C 105.651042 213.651042 106.067708 214.510417 106.588542 215.135417 C 107.328125 216.020833 107.802083 216.375 108.515625 217.088542 C 108.994792 217.567708 109.723958 218.505208 110.442708 218.989583 C 111.145833 219.458333 112.442708 219.75 112.953125 219.125 C 113.520833 218.427083 113.515625 217.088542 112.890625 216.463542 C 112.28125 215.854167 111.151042 216.338542 110.265625 216.338542 C 109.416667 216.338542 108.515625 216.338542 107.614583 216.338542 C 106.713542 216.338542 105.901042 216.296875 105.125 215.963542 C 104.286458 215.604167 103.260417 215.640625 102.515625 215.572917 C 101.609375 215.489583 100.90625 215.109375 99.994792 214.546875 C 99.302083 214.119792 98.390625 214.125 97.484375 214.088542 C 96.666667 214.057292 95.927083 213.515625 95 213.338542 C 94.151042 213.177083 93.192708 212.973958 92.854167 212.098958 C 92.536458 211.270833 92.390625 210.255208 92.770833 209.4375 C 93.125 208.682292 94.140625 208.838542 95.244792 208.838542 C 95.911458 208.838542 96.755208 208.838542 97.84375 208.838542 C 98.770833 208.838542 99.505208 208.838542 100.453125 208.838542 C 101.395833 208.838542 102.21875 208.838542 103.119792 208.838542 C 104.09375 208.838542 104.916667 208.838542 105.848958 208.838542 C 106.723958 208.838542 107.567708 208.697917 108.4375 208.901042 C 109.317708 209.109375 109.953125 209.875 110.463542 210.442708 C 111.083333 211.135417 111.875 211.515625 112.75 211.859375 C 113.494792 212.151042 114.328125 212.703125 115.046875 213.072917 C 115.822917 213.473958 116.614583 213.723958 117.203125 214.239583 C 117.8125 214.770833 118.9375 214.838542 119.776042 214.838542 C 120.734375 214.838542 120.260417 214.838542 119.40625 214.838542 C 118.359375 214.838542 117.505208 214.838542 116.921875 214.796875 C 115.723958 214.708333 114.848958 214.520833 114.052083 214.354167 C 113.067708 214.151042 111.973958 214.197917 111.567708 213.375 C 111.197917 212.635417 111.677083 211.786458 112.151042 210.96875 C 112.572917 210.234375 112.765625 209.182292 113.484375 208.854167 C 114.317708 208.473958 115.192708 208.84375 116.041667 208.84375 C 117.078125 208.84375 117.828125 208.84375 118.869792 208.84375 C 119.760417 208.84375 120.6875 208.6875 121.4375 208.927083 C 122.25 209.182292 122.651042 210.083333 123.40625 210.71875 C 124.052083 211.265625 124.890625 211.609375 125.692708 211.90625 C 126.520833 212.213542 127.114583 213.098958 127.807292 213.338542 C 128.723958 213.661458 129.520833 213.354167 130.458333 213.666667 C 131.151042 213.901042 131.916667 214.677083 132.770833 215.005208 C 133.510417 215.291667 134.385417 215.53125 135.145833 215.802083 C 135.859375 216.057292 136.703125 216.635417 137.484375 216.875 C 138.494792 217.1875 139.317708 217.421875 140.161458 217.713542 C 140.890625 217.96875 141.739583 218.348958 142.661458 218.572917 C 143.463542 218.765625 144.15625 218.380208 144.536458 217.625 C 144.880208 216.947917 146.234375 216.901042 146.03125 216.114583 C 145.796875 215.229167 144.78125 214.994792 143.828125 214.880208 C 143.052083 214.791667 142.041667 214.838542 141.166667 214.838542 C 140.307292 214.838542 139.197917 214.958333 139.291667 215.802083 C 139.390625 216.682292 140.203125 217.255208 140.916667 217.963542 C 141.40625 218.453125 142.140625 219.213542 143.041667 219.338542 C 143.90625 219.458333 144.807292 219.338542 145.666667 219.338542 C 146.526042 219.338542 147.223958 219.84375 148.067708 220.083333 C 148.932292 220.333333 148.421875 220.739583 147.708333 220.791667 C 146.807292 220.859375 145.541667 220.833333 144.96875 220.833333 C 143.984375 220.833333 142.979167 220.833333 142.291667 220.833333 C 141.223958 220.833333 140.401042 220.833333 139.739583 220.833333 C 138.619792 220.833333 137.802083 220.833333 136.796875 220.833333 C 135.932292 220.833333 135.083333 220.833333 134.135417 220.833333 C 133.28125 220.833333 132.4375 220.71875 131.755208 220.348958 C 131.026042 219.953125 129.895833 219.5625 129.171875 220.098958 C 128.630208 220.5 129.864583 220.796875 130.661458 221.046875 C 131.40625 221.28125 132.3125 221.5 133.125 221.604167 C 134.104167 221.729167 135.036458 222.192708 134.666667 222.333333 C 133.911458 222.625 132.78125 222.333333 132.166667 222.333333 C 130.984375 222.333333 130.213542 222.333333 129.458333 222.333333 C 128.395833 222.333333 127.489583 222.333333 126.994792 222.333333 C 125.947917 222.333333 125.40625 222.333333 123.791667 222.333333 C 123.276042 222.333333 122.291667 222.333333 121.385417 222.333333 C 120.567708 222.333333 119.541667 222.333333 118.765625 222.333333 C 117.666667 222.333333 116.828125 222.333333 116.026042 222.333333 C 115.114583 222.333333 114.213542 222.333333 113.34375 222.333333 C 112.385417 222.333333 111.494792 222.333333 110.796875 222.333333 C 109.802083 222.333333 108.84375 222.333333 107.979167 222.333333 C 107.177083 222.333333 106.208333 222.34375 105.296875 222.333333 C 104.421875 222.328125 103.567708 222.15625 102.776042 221.848958 C 101.963542 221.53125 100.963542 221.65625 100.145833 221.583333 C 99.203125 221.5 98.40625 221.197917 97.78125 220.53125 C 97.182292 219.895833 96.854167 219.276042 96.09375 218.901042 C 95.270833 218.489583 94.833333 217.677083 94.145833 217.145833 C 93.546875 216.6875 92.1875 216.395833 92.354167 215.583333 C 92.520833 214.78125 93.833333 215.567708 94.677083 215.635417 C 95.333333 215.692708 96.432292 215.901042 97.223958 216.114583 C 98.036458 216.333333 98.828125 216.59375 99.921875 216.958333 C 100.838542 217.260417 101.546875 217.59375 102.567708 217.770833 C 103.4375 217.916667 104.421875 217.692708 105.296875 217.833333 C 106.109375 217.96875 106.916667 218.520833 107.796875 218.583333 C 108.692708 218.645833 109.588542 218.567708 110.4375 218.583333 C 111.302083 218.598958 112.119792 218.807292 112.859375 219.015625 C 113.927083 219.3125 114.817708 219.333333 115.661458 219.333333 C 116.4375 219.333333 117.395833 219.333333 118.375 219.333333 C 119.291667 219.333333 119.984375 219.333333 121.0625 219.333333 C 121.880208 219.333333 122.864583 219.276042 123.583333 219.364583 C 124.692708 219.5 125.239583 219.755208 126.177083 220.083333 C 126.807292 220.302083 127.921875 220.713542 128.755208 220.802083 C 129.697917 220.901042 130.557292 220.8125 131.494792 220.833333 C 132.369792 220.854167 133.098958 221.333333 134.015625 221.557292 C 134.78125 221.744792 135.770833 221.583333 136.666667 221.583333 C 137.552083 221.583333 138.375 221.583333 139.286458 221.583333 C 140.265625 221.583333 141.104167 221.583333 142 221.583333 C 142.869792 221.583333 143.786458 221.583333 144.713542 221.583333 C 145.520833 221.583333 146.40625 221.583333 147.328125 221.583333 C 148.151042 221.583333 149.114583 221.588542 150.020833 221.583333 C 150.119792 221.583333 149.307292 221.630208 148.447917 221.25 C 147.489583 220.822917 147.005208 220.140625 146.348958 219.760417 C 145.510417 219.276042 144.463542 219.333333 143.572917 219.333333 C 142.739583 219.333333 141.802083 219.447917 140.921875 219.333333 C 140.088542 219.223958 139.557292 218.661458 138.677083 218.572917 C 137.802083 218.484375 136.96875 217.932292 136.317708 217.765625 C 135.34375 217.520833 134.557292 217.291667 133.640625 217.119792 L 132.848958 217.078125 " transform="matrix(0.75,0,0,0.75,0,0)"/>
<path style="fill:none;stroke-width:5;stroke-linecap:butt;stroke-linejoin:miter;stroke:rgb(0%,62.745098%,69.411765%);stroke-opacity:1;stroke-miterlimit:4;" fill="#000000" d="M 101.026042 208.833333 C 102.651042 208.833333 103.328125 208.8125 104.276042 208.958333 C 105.015625 209.072917 105.854167 209.28125 107.026042 209.708333 C 107.630208 209.927083 108.46875 210.34375 109.234375 210.65625 C 110.239583 211.0625 111.140625 211.083333 111.911458 211.083333 L 112.901042 211.208333 " transform="matrix(0.75,0,0,0.75,0,0)"/>
<path style="fill:none;stroke-width:5;stroke-linecap:butt;stroke-linejoin:miter;stroke:rgb(0%,62.745098%,69.411765%);stroke-opacity:1;stroke-miterlimit:4;" fill="#000000" d="M 96.526042 201.333333 C 96.526042 202.208333 96.760417 203.083333 97.401042 203.708333 C 97.916667 204.208333 98.802083 204.671875 99.510417 205.15625 C 100.21875 205.645833 100.984375 206.317708 101.864583 206.515625 C 102.75 206.713542 103.614583 206.473958 104.385417 206.96875 C 105.182292 207.484375 105.635417 208.291667 106.401042 208.703125 C 107.15625 209.104167 108.135417 208.609375 108.973958 208.854167 C 109.78125 209.088542 110.145833 209.96875 110.885417 210.34375 C 111.708333 210.765625 112.494792 210.921875 113.296875 211.401042 C 114.026042 211.833333 114.671875 212.510417 115.5 212.838542 L 116.244792 213.28125 " transform="matrix(0.75,0,0,0.75,0,0)"/>
<path style="fill:none;stroke-width:5;stroke-linecap:butt;stroke-linejoin:miter;stroke:rgb(0%,62.745098%,69.411765%);stroke-opacity:1;stroke-miterlimit:4;" fill="#000000" d="M 95.026042 206.583333 C 95.052083 208.1875 95.494792 208.817708 96.515625 209.333333 C 97.067708 209.609375 97.635417 209.984375 98.526042 210.447917 C 99.567708 210.989583 100.416667 210.989583 101.213542 211.140625 C 102.119792 211.3125 102.885417 211.875 103.515625 212.161458 C 104.416667 212.5625 105.296875 212.619792 106.239583 212.854167 C 107.026042 213.052083 108.911458 212.46875 108.895833 213.338542 C 108.885417 214.098958 107.213542 213.338542 106.385417 213.338542 C 105.697917 213.338542 104.546875 213.338542 103.765625 213.338542 C 102.776042 213.338542 101.989583 213.338542 100.942708 213.338542 C 100.130208 213.338542 99.536458 212.880208 99.53125 211.989583 L 99.505208 211.041667 L 99.140625 210.322917 " transform="matrix(0.75,0,0,0.75,0,0)"/>
<path style="fill:none;stroke-width:5;stroke-linecap:butt;stroke-linejoin:miter;stroke:rgb(0%,62.745098%,69.411765%);stroke-opacity:1;stroke-miterlimit:4;" fill="#000000" d="M 128.776042 209.583333 C 126.807292 210.755208 125.90625 211.067708 125.041667 211.083333 C 124.125 211.098958 123.223958 211.083333 122.401042 211.083333 C 121.5 211.083333 120.567708 211.083333 119.703125 211.083333 C 118.838542 211.083333 117.901042 211.083333 117.052083 211.083333 L 116.78125 210.333333 " transform="matrix(0.75,0,0,0.75,0,0)"/>
<path style="fill:none;stroke-width:5;stroke-linecap:butt;stroke-linejoin:miter;stroke:rgb(0%,62.745098%,69.411765%);stroke-opacity:1;stroke-miterlimit:4;" fill="#000000" d="M 135.526042 208.833333 C 136.098958 210.109375 136.916667 210.645833 137.604167 210.994792 C 138.5 211.453125 139.302083 211.84375 139.880208 212.09375 C 141.0625 212.59375 141.666667 212.75 142.494792 213.026042 C 143.583333 213.390625 144.229167 213.786458 145.015625 214.307292 L 145.661458 214.619792 L 146.713542 214.833333 " transform="matrix(0.75,0,0,0.75,0,0)"/>
<path style="fill:none;stroke-width:5;stroke-linecap:butt;stroke-linejoin:miter;stroke:rgb(0%,62.745098%,69.411765%);stroke-opacity:1;stroke-miterlimit:4;" fill="#000000" d="M 146.026042 223.083333 C 146.859375 223.083333 147.666667 223.083333 148.619792 223.083333 C 149.557292 223.083333 150.78125 223.354167 150.78125 223.083333 C 150.78125 222.208333 148.9375 223.083333 148.03125 223.083333 C 147.21875 223.083333 146.291667 223.229167 145.395833 222.958333 C 144.614583 222.723958 143.765625 222.359375 143.026042 222.338542 C 142.026042 222.3125 141.114583 222.333333 140.197917 222.333333 C 139.463542 222.333333 138.380208 222.333333 137.526042 222.333333 C 136.666667 222.333333 135.71875 222.333333 134.927083 222.333333 C 133.901042 222.333333 133.145833 222.333333 132.182292 222.333333 C 131.369792 222.333333 130.40625 222.333333 129.541667 222.333333 C 128.651042 222.333333 127.807292 222.333333 126.848958 222.333333 C 126.135417 222.333333 125.067708 222.333333 124.203125 222.333333 C 123.302083 222.333333 122.552083 221.833333 121.729167 221.609375 C 120.859375 221.375 119.963542 221.583333 119.151042 221.583333 C 118.130208 221.583333 117.453125 221.328125 116.651042 220.958333 C 115.869792 220.598958 114.916667 220.802083 114.526042 220.083333 C 114.135417 219.364583 112.921875 219.557292 113.375 220.072917 C 113.916667 220.6875 114.796875 220.619792 115.572917 220.973958 C 116.651042 221.463542 117.411458 221.744792 118.0625 222.026042 C 119.0625 222.453125 119.651042 222.911458 120.567708 223.234375 C 121.291667 223.489583 122.109375 223.666667 123.161458 223.770833 C 124.140625 223.869792 125.151042 223.833333 125.958333 223.833333 C 126.776042 223.833333 127.770833 223.833333 128.567708 223.833333 C 129.520833 223.833333 130.333333 223.453125 131.286458 223.84375 C 131.989583 224.130208 132.645833 224.583333 133.53125 224.583333 C 134.463542 224.583333 135.307292 224.583333 136.166667 224.583333 C 137.109375 224.583333 138.010417 224.583333 138.78125 224.583333 C 139.791667 224.583333 140.619792 224.583333 141.59375 224.583333 C 142.484375 224.583333 143.317708 224.583333 144.21875 224.583333 C 145.119792 224.583333 146.020833 224.588542 146.932292 224.583333 C 147.807292 224.578125 148.338542 224.078125 149.182292 223.833333 C 149.994792 223.598958 150.239583 222.703125 150.84375 222.041667 C 151.463542 221.369792 152.520833 221.59375 152.333333 222.041667 C 151.989583 222.885417 151.208333 223.489583 150.364583 223.770833 C 149.578125 224.03125 148.609375 223.630208 147.8125 223.859375 C 146.942708 224.109375 146.28125 224.71875 145.489583 225.067708 C 144.645833 225.4375 143.6875 225.328125 142.864583 225.333333 C 141.994792 225.333333 141.203125 225.677083 140.265625 225.958333 C 139.46875 226.197917 138.65625 226.083333 137.640625 226.083333 C 136.791667 226.083333 135.90625 226.083333 135.057292 226.083333 C 134.15625 226.083333 133.260417 226.083333 132.520833 226.083333 C 131.510417 226.083333 130.526042 226.083333 129.817708 226.083333 C 128.786458 226.083333 127.932292 226.083333 127.041667 226.083333 C 126.15625 226.083333 125.203125 226.083333 124.270833 226.083333 C 123.447917 226.083333 122.557292 226.083333 121.645833 226.083333 C 120.822917 226.083333 119.921875 226.083333 118.979167 226.083333 C 118.119792 226.083333 117.135417 226.161458 116.541667 225.552083 C 115.916667 224.916667 115.192708 224.583333 114.276042 224.583333 C 113.463542 224.583333 112.53125 224.755208 111.640625 224.458333 C 110.848958 224.192708 109.994792 223.932292 109.140625 223.708333 C 108.328125 223.494792 107.442708 223.260417 106.630208 223.020833 C 105.78125 222.770833 105.036458 222.208333 104.239583 221.848958 C 103.479167 221.505208 102.520833 221.729167 101.598958 221.583333 C 100.760417 221.447917 100.015625 220.9375 99.244792 220.567708 C 98.427083 220.171875 97.552083 220.286458 96.734375 220.041667 C 95.901042 219.791667 95.098958 219.447917 94.1875 219.333333 C 93.34375 219.223958 92.614583 218.645833 91.786458 218.583333 L 89.984375 218.583333 " transform="matrix(0.75,0,0,0.75,0,0)"/>
<path style="fill:none;stroke-width:5;stroke-linecap:butt;stroke-linejoin:miter;stroke:rgb(0%,62.745098%,69.411765%);stroke-opacity:1;stroke-miterlimit:4;" fill="#000000" d="M 104.776042 200.583333 C 105.041667 202.041667 105.21875 202.703125 105.651042 203.583333 C 106.041667 204.375 107.098958 204.5 107.6875 205.15625 L 107.994792 205.979167 L 108.682292 206.515625 L 109.505208 206.578125 " transform="matrix(0.75,0,0,0.75,0,0)"/>
</g>
</svg>
