<?xml version="1.0" encoding="UTF-8"?>
<svg xmlns="http://www.w3.org/2000/svg" xmlns:xlink="http://www.w3.org/1999/xlink"   viewBox="0 0 192 192" version="1.1">
<g>
<path style=" stroke:none;fill-rule:nonzero;fill-opacity:1;" fill="#009fb1" d="M 169.152344 108.839844 C 165.1875 105.105469 158.375 101.78125 148.988281 98.9375 C 145.046875 97.757812 141.484375 96.890625 139.074219 96.351562 C 141.03125 94.824219 144.277344 91.914062 143.765625 89.3125 C 143.636719 88.699219 143.296875 88.199219 142.84375 87.847656 C 146.457031 84.101562 148.023438 80.96875 147.542969 78.484375 C 147.414062 77.871094 147.070312 77.445312 146.582031 77.246094 C 146.199219 77.125 145.8125 77.15625 145.425781 77.261719 C 146.046875 75.863281 146.457031 74.535156 146.726562 73.285156 C 147.652344 68.804688 147.15625 65.289062 145.550781 64.726562 C 145.203125 64.605469 144.082031 64.394531 143.273438 66.515625 C 143.089844 67.007812 142.902344 67.539062 142.683594 68.105469 C 142.648438 68.179688 142.644531 68.21875 142.609375 68.292969 C 142.617188 66.042969 142.53125 63.144531 142.265625 60.433594 C 142.269531 60.320312 141.15625 50.273438 138.597656 50.226562 C 138.597656 50.226562 138.5625 50.226562 138.527344 50.226562 C 137.296875 50.28125 136.738281 52.214844 136.578125 56.859375 C 136.503906 58.878906 136.363281 60.820312 136.1875 62.722656 C 135.773438 60.503906 135.15625 57.710938 134.398438 55.105469 C 134.367188 54.992188 131.390625 45.214844 128.851562 45.894531 C 127.652344 46.214844 127.441406 48.230469 128.160156 52.816406 C 128.535156 55.222656 128.773438 57.554688 128.90625 59.804688 C 128.445312 58.195312 127.882812 56.433594 127.246094 54.820312 C 127.210938 54.742188 123.53125 45.222656 121.058594 46.128906 C 119.894531 46.566406 119.820312 48.582031 120.894531 53.101562 C 121.574219 56.125 122.046875 59.070312 122.382812 61.820312 C 121.542969 59.785156 120.433594 57.171875 119.179688 54.863281 C 119.144531 54.785156 114.328125 45.894531 111.992188 47.144531 C 110.894531 47.734375 111.066406 49.757812 112.671875 54.054688 C 113.941406 57.433594 114.828125 60.765625 115.542969 63.789062 C 114.171875 61.972656 112.148438 59.457031 110.085938 57.324219 C 108.503906 55.695312 106.671875 54.136719 105.113281 53.078125 C 102.480469 51.351562 101.632812 51.679688 101.203125 52.128906 C 100.273438 53.027344 101.011719 54.90625 103.644531 58.578125 C 106.550781 62.75 108.855469 66.90625 110.578125 70.597656 C 108.996094 68.929688 107.304688 67.410156 105.613281 65.96875 C 104.472656 65.03125 103.402344 64.175781 102.398438 63.46875 C 102.328125 63.429688 94.363281 57.792969 92.78125 60.050781 C 92.023438 61.105469 93.011719 62.800781 96.214844 65.90625 C 98.28125 67.925781 100.136719 69.980469 101.785156 72.03125 C 100.742188 71.441406 99.734375 70.925781 98.796875 70.488281 C 98.761719 70.449219 90.03125 66.4375 88.828125 68.96875 C 88.246094 70.175781 89.515625 71.648438 93.152344 74.078125 C 95.371094 75.566406 97.550781 77.207031 99.621094 79.039062 C 98.957031 78.835938 98.328125 78.671875 97.703125 78.507812 C 97.597656 78.503906 88.34375 76.277344 87.589844 78.96875 C 87.214844 80.257812 88.699219 81.464844 92.703125 83.140625 C 93.679688 83.539062 94.652344 83.976562 95.625 84.453125 C 93.582031 84.910156 86.8125 86.652344 87.015625 89.058594 C 87.132812 90.394531 88.945312 90.886719 93.230469 90.738281 C 94.179688 90.71875 95.160156 90.699219 96.109375 90.714844 C 95.683594 90.9375 95.261719 91.117188 94.90625 91.300781 C 94.835938 91.335938 87.855469 94.980469 88.691406 97.246094 C 88.890625 97.785156 89.308594 98.058594 90.113281 98.074219 C 90.953125 98.089844 92.222656 97.808594 94.023438 97.195312 C 94.625 96.976562 95.222656 96.796875 95.859375 96.621094 C 96.445312 97.128906 97.800781 97.839844 100.816406 97.894531 C 101.34375 97.90625 101.9375 97.914062 102.605469 97.851562 C 103.324219 98.78125 105.636719 100.84375 111.089844 100.066406 C 111.863281 99.964844 112.457031 100.167969 112.9375 100.75 C 115.378906 103.464844 114.640625 113.015625 114.15625 116.4375 C 114.113281 116.855469 114.351562 117.242188 114.769531 117.324219 C 114.804688 117.324219 114.839844 117.324219 114.875 117.328125 C 115.226562 117.335938 115.546875 117.074219 115.589844 116.65625 C 115.667969 116.125 117.414062 103.464844 113.976562 99.628906 C 113.152344 98.699219 112.140625 98.335938 110.910156 98.503906 C 107.640625 98.9375 105.722656 98.292969 104.648438 97.625 C 105.210938 97.558594 105.808594 97.492188 106.441406 97.390625 C 106.828125 97.320312 107.117188 96.945312 107.054688 96.527344 C 106.992188 96.105469 106.648438 95.796875 106.261719 95.863281 C 101.933594 96.546875 99.484375 96.308594 98.15625 95.980469 C 99.988281 95.519531 101.855469 95.210938 103.753906 94.941406 C 104.140625 94.910156 104.429688 94.496094 104.402344 94.078125 C 104.375 93.660156 103.996094 93.347656 103.609375 93.378906 C 100.550781 93.78125 97.554688 94.410156 94.699219 95.308594 C 94.605469 94.621094 94.265625 94.042969 93.890625 93.617188 C 94.421875 93.285156 94.953125 92.988281 95.558594 92.65625 C 96.621094 92.105469 98.214844 91.371094 99.628906 90.789062 C 100.222656 90.839844 100.820312 90.886719 101.414062 90.9375 C 101.414062 90.9375 101.449219 90.9375 101.449219 90.9375 C 101.835938 90.945312 102.15625 90.644531 102.164062 90.226562 C 102.207031 89.808594 101.933594 89.421875 101.511719 89.375 C 98.746094 89.09375 95.976562 89.003906 93.308594 89.109375 C 93.359375 88.273438 93.09375 87.390625 92.789062 86.773438 C 93.847656 86.410156 95.082031 86.09375 96.453125 85.851562 C 96.910156 85.785156 97.367188 85.679688 97.894531 85.613281 C 99.875 86.679688 101.851562 87.859375 103.792969 89.152344 C 103.898438 89.230469 104.035156 89.269531 104.140625 89.273438 C 104.386719 89.277344 104.632812 89.128906 104.777344 88.902344 C 104.996094 88.523438 104.863281 88.066406 104.550781 87.832031 C 100.636719 85.054688 94.898438 82.394531 93.230469 81.675781 C 93.054688 81.597656 92.882812 81.515625 92.707031 81.4375 C 93.136719 80.910156 93.570312 80.195312 93.730469 79.320312 C 94.851562 79.457031 96.074219 79.667969 97.402344 80 C 98.902344 80.371094 100.578125 80.898438 102.390625 81.503906 C 103.492188 82.554688 104.59375 83.679688 105.625 84.839844 C 105.761719 84.996094 105.9375 85.074219 106.113281 85.078125 C 106.289062 85.082031 106.5 85.007812 106.644531 84.859375 C 106.929688 84.558594 106.941406 84.066406 106.664062 83.753906 C 102.914062 79.683594 98.914062 76.140625 94.652344 73.203125 C 95.433594 72.761719 96.144531 72.085938 96.375 71.0625 C 97.003906 71.304688 97.628906 71.582031 98.289062 71.898438 C 100.097656 72.730469 102.109375 73.875 104.296875 75.210938 C 106.347656 78.03125 107.949219 80.691406 109.171875 82.847656 C 109.308594 83.078125 109.550781 83.199219 109.761719 83.203125 C 109.902344 83.207031 110.007812 83.167969 110.148438 83.097656 C 110.46875 82.875 110.582031 82.382812 110.378906 82.035156 C 108.035156 77.835938 104.113281 71.742188 98.46875 65.996094 C 99.210938 65.742188 99.992188 65.1875 100.507812 63.976562 C 100.890625 64.210938 101.269531 64.484375 101.652344 64.761719 C 102.621094 65.464844 103.695312 66.285156 104.800781 67.183594 C 107.496094 69.445312 110.078125 72.007812 112.484375 74.796875 C 113.222656 76.640625 113.789062 78.289062 114.21875 79.554688 C 114.316406 79.863281 114.59375 80.058594 114.875 80.0625 C 114.945312 80.0625 115.050781 80.066406 115.121094 80.027344 C 115.507812 79.882812 115.695312 79.429688 115.558594 79.042969 C 114.164062 74.710938 110.953125 66.265625 105.003906 57.960938 C 105.710938 57.746094 106.417969 57.300781 106.996094 56.433594 C 107.6875 57.019531 108.375 57.679688 109.097656 58.453125 C 112.710938 62.253906 116.195312 67.199219 116.230469 67.238281 C 116.996094 71.445312 117.277344 74.996094 117.410156 77.320312 C 117.4375 77.738281 117.746094 78.050781 118.097656 78.058594 C 118.097656 78.058594 118.132812 78.058594 118.167969 78.058594 C 118.554688 78.027344 118.878906 77.652344 118.851562 77.234375 C 118.621094 72.734375 117.730469 63.875 114.296875 54.28125 C 114.4375 54.285156 114.542969 54.324219 114.683594 54.328125 C 114.929688 54.332031 115.175781 54.300781 115.421875 54.226562 C 115.914062 54.082031 116.339844 53.824219 116.699219 53.488281 C 117.109375 54.144531 117.515625 54.875 117.921875 55.605469 C 120.429688 60.339844 122.601562 66.210938 122.769531 66.558594 C 123.1875 74.226562 122.421875 79.585938 122.421875 79.664062 C 122.378906 80.082031 122.617188 80.46875 123 80.550781 C 123.035156 80.550781 123.070312 80.550781 123.105469 80.554688 C 123.457031 80.5625 123.777344 80.300781 123.820312 79.882812 C 123.824219 79.769531 125.519531 67.792969 122.515625 53.867188 C 122.621094 53.871094 122.726562 53.871094 122.796875 53.871094 C 123.535156 53.886719 124.34375 53.710938 124.949219 53.148438 C 125.253906 53.839844 125.589844 54.609375 125.890625 55.414062 C 127.496094 59.636719 128.667969 64.574219 129.023438 66.105469 C 128.914062 73.953125 127.757812 79.382812 127.722656 79.460938 C 127.644531 79.878906 127.882812 80.300781 128.265625 80.386719 C 128.300781 80.386719 128.371094 80.390625 128.40625 80.390625 C 128.722656 80.398438 129.042969 80.171875 129.117188 79.792969 C 129.15625 79.679688 131.6875 67.910156 129.707031 53.773438 C 130.019531 53.855469 130.40625 53.902344 130.792969 53.90625 C 131.285156 53.914062 131.847656 53.847656 132.34375 53.59375 C 132.578125 54.207031 132.777344 54.859375 132.972656 55.550781 C 134.09375 59.382812 134.855469 63.703125 135.203125 65.769531 C 135.296875 66.304688 135.390625 66.992188 135.453125 67.449219 C 133.914062 76.566406 131.308594 82.769531 131.273438 82.84375 C 131.089844 83.222656 131.257812 83.683594 131.605469 83.878906 C 131.710938 83.917969 131.816406 83.960938 131.882812 83.960938 C 132.164062 83.964844 132.414062 83.78125 132.558594 83.515625 C 132.597656 83.402344 137.148438 72.585938 137.898438 58.5 C 138.488281 58.890625 139.183594 59.210938 139.953125 59.222656 C 140.164062 59.226562 140.375 59.191406 140.585938 59.15625 C 140.648438 59.613281 140.707031 60.113281 140.769531 60.609375 C 141.273438 65.574219 141.0625 71.210938 141.046875 72.199219 C 139.910156 74.847656 138.234375 78.128906 135.386719 82.269531 C 135.136719 82.609375 135.230469 83.105469 135.542969 83.339844 C 135.855469 83.574219 136.3125 83.507812 136.527344 83.167969 C 140.242188 77.75 142 73.816406 143.179688 70.753906 C 143.386719 70.988281 143.664062 71.183594 143.976562 71.339844 C 144.289062 71.5 144.605469 71.542969 144.953125 71.546875 C 145.128906 71.550781 145.339844 71.554688 145.515625 71.519531 C 145.4375 71.976562 145.359375 72.429688 145.277344 72.925781 C 143.890625 79.570312 137.445312 86.539062 137.375 86.613281 C 137.089844 86.914062 137.078125 87.40625 137.355469 87.71875 C 137.492188 87.875 137.667969 87.953125 137.84375 87.957031 C 138.019531 87.960938 138.230469 87.886719 138.339844 87.738281 C 138.410156 87.664062 140.058594 85.902344 141.933594 83.230469 C 142.367188 82.589844 142.796875 81.988281 143.160156 81.347656 C 143.261719 81.539062 143.363281 81.769531 143.5 81.964844 C 143.84375 82.429688 144.292969 82.742188 144.886719 82.90625 C 142.714844 86.410156 138.191406 90.175781 136.058594 91.773438 C 135.738281 92.035156 135.625 92.488281 135.863281 92.835938 C 136 93.066406 136.207031 93.183594 136.453125 93.191406 C 136.59375 93.195312 136.734375 93.160156 136.875 93.046875 C 136.980469 92.972656 139.046875 91.371094 141.4375 89.207031 C 141.652344 88.980469 141.894531 89.0625 142 89.140625 C 142.171875 89.257812 142.3125 89.414062 142.339844 89.640625 C 142.695312 91.324219 139.480469 94.3125 137.066406 95.945312 C 136.402344 95.820312 136.019531 95.734375 136.019531 95.734375 C 135.84375 95.691406 135.632812 95.726562 135.492188 95.878906 L 131.507812 98.929688 C 131.328125 99.078125 131.222656 99.265625 131.214844 99.496094 C 131.210938 99.726562 131.277344 99.953125 131.449219 100.109375 L 133.617188 102.285156 C 133.753906 102.402344 133.894531 102.480469 134.070312 102.484375 C 134.28125 102.488281 134.457031 102.492188 134.667969 102.496094 C 132.402344 105.503906 131.972656 109.765625 133.660156 113.261719 C 135.316406 116.683594 136.621094 120.0625 136.621094 120.101562 C 136.71875 120.410156 137 120.566406 137.277344 120.570312 C 137.382812 120.574219 137.488281 120.574219 137.558594 120.5 C 137.914062 120.316406 138.097656 119.863281 137.929688 119.476562 C 137.929688 119.4375 136.589844 115.984375 134.902344 112.484375 C 133.28125 109.136719 133.988281 104.996094 136.5625 102.53125 C 154.894531 103.40625 168.277344 110.058594 168.414062 110.136719 C 168.519531 110.175781 168.625 110.21875 168.691406 110.21875 C 169.078125 110.226562 169.398438 109.890625 169.40625 109.46875 C 169.445312 109.242188 169.34375 109.011719 169.171875 108.855469 Z M 93.230469 95.84375 C 91.570312 96.382812 90.691406 96.519531 90.269531 96.511719 C 90.628906 96.0625 91.449219 95.3125 92.585938 94.496094 C 92.898438 94.769531 93.308594 95.273438 93.226562 95.84375 Z M 91.878906 89.1875 C 89.808594 89.1875 88.9375 88.980469 88.625 88.820312 C 89.019531 88.445312 90.011719 87.855469 91.460938 87.308594 C 91.695312 87.882812 91.996094 88.691406 91.882812 89.183594 Z M 91.296875 80.828125 C 89.90625 80.117188 89.320312 79.6875 89.078125 79.414062 C 89.574219 79.234375 90.695312 79.140625 92.238281 79.207031 C 92.085938 79.929688 91.617188 80.492188 91.296875 80.828125 Z M 93.105469 72.210938 C 91.097656 70.800781 90.445312 70.027344 90.207031 69.679688 C 90.875 69.578125 92.660156 69.839844 94.960938 70.566406 C 94.835938 71.59375 93.636719 72.066406 93.105469 72.207031 Z M 97.984375 64.527344 C 97.597656 64.632812 97.246094 64.628906 97.070312 64.625 C 94.898438 62.488281 94.25 61.484375 94.085938 61.0625 C 94.824219 61.078125 96.808594 61.800781 99.238281 63.214844 C 98.945312 63.894531 98.515625 64.34375 97.984375 64.527344 Z M 103.921875 56.558594 C 102.625 54.667969 102.289062 53.746094 102.191406 53.363281 C 102.785156 53.488281 104.140625 54.238281 105.765625 55.527344 C 105.222656 56.46875 104.34375 56.566406 103.921875 56.558594 Z M 115.078125 52.726562 C 114.515625 52.867188 113.886719 52.628906 113.609375 52.46875 C 112.777344 50.089844 112.65625 49.058594 112.664062 48.640625 C 113.253906 48.957031 114.457031 50.238281 115.824219 52.207031 C 115.609375 52.46875 115.359375 52.65625 115.078125 52.726562 Z M 122.171875 52.285156 C 121.523438 49.375 121.546875 48.195312 121.589844 47.738281 C 122.109375 48.128906 123.167969 49.558594 124.253906 51.714844 C 123.816406 52.507812 122.734375 52.371094 122.171875 52.285156 Z M 129.472656 52.117188 C 129.035156 49.136719 129.128906 47.957031 129.242188 47.539062 C 129.792969 48.042969 130.816406 49.703125 131.820312 52.199219 C 131.074219 52.605469 130.027344 52.320312 129.472656 52.117188 Z M 137.984375 56.582031 C 138.078125 53.496094 138.414062 52.320312 138.597656 51.90625 C 139.078125 52.523438 139.84375 54.671875 140.386719 57.617188 C 139.292969 57.863281 138.363281 57.007812 137.984375 56.582031 Z M 144.578125 69.929688 C 144.195312 69.769531 143.957031 69.382812 143.820312 69.117188 C 143.859375 68.964844 143.929688 68.8125 143.96875 68.664062 C 144.152344 68.132812 144.339844 67.605469 144.523438 67.113281 C 144.78125 66.46875 144.996094 66.246094 145.066406 66.207031 C 145.308594 66.363281 145.816406 67.480469 145.664062 69.878906 C 145.238281 70.0625 144.855469 70.054688 144.574219 69.933594 Z M 144.617188 80.984375 C 144.273438 80.519531 144.320312 79.875 144.328125 79.605469 C 145.289062 78.824219 145.925781 78.683594 146.027344 78.761719 C 146.027344 78.761719 146.0625 78.800781 146.058594 78.875 C 146.21875 79.679688 146.027344 80.589844 145.625 81.535156 C 145.207031 81.414062 144.859375 81.253906 144.617188 80.984375 Z M 136.035156 97.328125 C 137.292969 97.582031 142.535156 98.59375 148.570312 100.417969 C 150.417969 100.984375 152.164062 101.550781 153.800781 102.152344 C 150.171875 101.09375 146.816406 100.347656 144.054688 99.875 C 139.71875 99.148438 136.214844 98.890625 134.078125 98.8125 L 136.035156 97.324219 Z M 133.769531 100.375 C 136.644531 100.503906 142.53125 100.917969 149.515625 102.609375 C 145.007812 101.726562 139.863281 101.058594 134.355469 100.957031 Z M 133.769531 100.375 "/>
<path style=" stroke:none;fill-rule:nonzero;fill-opacity:1;" fill="#009fb1" d="M 128.460938 93.601562 C 127.199219 93.578125 125.796875 95.304688 125.402344 95.832031 C 125.1875 96.09375 125.179688 96.515625 125.382812 96.824219 C 125.757812 97.363281 127.128906 99.144531 128.355469 99.167969 C 129.757812 99.195312 130.707031 97.191406 130.890625 96.777344 C 130.964844 96.589844 130.96875 96.359375 130.902344 96.128906 C 130.734375 95.667969 129.859375 93.632812 128.457031 93.605469 Z M 128.386719 97.5625 C 128.070312 97.554688 127.414062 96.972656 126.867188 96.316406 C 127.441406 95.679688 128.117188 95.121094 128.433594 95.125 C 128.679688 95.128906 129.125 95.746094 129.429688 96.363281 C 129.136719 97.003906 128.636719 97.566406 128.390625 97.5625 Z M 128.386719 97.5625 "/>
</g>
</svg>
