<?xml version="1.0" encoding="UTF-8"?>
<svg xmlns="http://www.w3.org/2000/svg" xmlns:xlink="http://www.w3.org/1999/xlink"   viewBox="0 0 192 192" version="1.1">
<g>
<path style=" stroke:none;fill-rule:nonzero;fill-opacity:1;" fill="#009fb1" d="M 95.773438 9.976562 C 82.796875 17.476562 75.898438 26.175781 74.097656 37.125 C 73.496094 40.648438 73.722656 45.75 74.621094 49.050781 C 75.070312 50.925781 75.144531 51 76.871094 51 C 86.847656 51 103.570312 55.800781 118.871094 63.074219 C 122.019531 64.574219 124.570312 65.699219 124.644531 65.699219 C 124.71875 65.625 122.46875 63.675781 119.695312 61.347656 C 100.195312 45.074219 93.144531 29.472656 98.320312 13.421875 C 98.769531 11.921875 99.519531 9.972656 100.046875 9.070312 C 100.496094 8.246094 100.648438 7.496094 100.496094 7.496094 C 100.195312 7.496094 98.097656 8.621094 95.769531 9.972656 Z M 95.773438 9.976562 "/>
<path style=" stroke:none;fill-rule:nonzero;fill-opacity:1;" fill="#009fb1" d="M 33.898438 32.925781 C 30 54.226562 33.75 69.527344 46.347656 82.800781 C 48.371094 84.976562 49.648438 86.699219 49.648438 87.226562 C 49.648438 90.078125 52.5 95.25 55.949219 98.550781 C 64.347656 106.726562 83.25 112.949219 99.597656 112.949219 C 101.621094 112.949219 103.273438 113.097656 103.273438 113.324219 C 103.273438 113.550781 102.148438 114.898438 100.875 116.324219 C 94.273438 123.449219 75.824219 132.449219 58.949219 136.722656 C 49.199219 139.199219 40.199219 139.871094 34.347656 138.449219 C 30.824219 137.625 30.222656 137.625 29.171875 138.375 C 28.421875 138.898438 28.421875 139.050781 28.945312 140.324219 C 30.59375 144.300781 43.570312 155.023438 47.996094 156.074219 L 49.121094 156.375 L 46.871094 158.476562 C 43.269531 161.777344 43.347656 164.476562 47.097656 167.25 C 50.699219 169.800781 60.746094 172.726562 66.222656 172.726562 C 68.773438 172.726562 68.847656 172.800781 67.949219 174.453125 C 67.574219 175.054688 67.347656 176.179688 67.347656 177.003906 C 67.347656 179.777344 69.671875 181.730469 74.847656 183.003906 C 77.398438 183.679688 85.421875 184.578125 86.023438 184.203125 C 86.171875 184.128906 86.324219 183.304688 86.324219 182.328125 C 86.324219 179.777344 87.824219 172.804688 89.324219 168.601562 C 93.75 156.078125 101.175781 146.550781 112.425781 139.050781 C 114.375 137.777344 119.324219 135.152344 123.375 133.199219 C 141.375 124.875 148.5 120.675781 154.125 115.125 C 158.25 111 160.425781 106.949219 162.148438 100.125 C 164.773438 89.851562 163.273438 83.550781 155.023438 71.023438 C 150.824219 64.574219 150.375 63.671875 150.375 61.125 C 150.300781 58.050781 151.574219 54.898438 153.898438 51.824219 C 155.023438 50.324219 156 49.050781 156 48.972656 C 156 48.898438 154.875 48.671875 153.601562 48.523438 C 152.027344 48.375 150 47.773438 148.125 46.796875 C 138 41.921875 131.851562 45.070312 129.375 56.398438 C 129.074219 57.597656 128.851562 61.5 128.851562 64.949219 C 128.851562 68.472656 128.777344 71.398438 128.625 71.398438 C 128.476562 71.398438 125.25 69.824219 121.425781 67.875 C 109.199219 61.726562 97.050781 57.375 86.550781 55.351562 C 84 54.902344 78.75 54.300781 74.777344 54.078125 C 65.628906 53.628906 61.277344 52.652344 55.351562 50.101562 C 49.726562 47.851562 42.828125 42 37.203125 34.800781 C 35.777344 33 34.578125 31.574219 34.429688 31.574219 C 34.28125 31.574219 34.054688 32.175781 33.90625 32.925781 Z M 147.222656 50.175781 C 147.824219 51.226562 147.296875 52.277344 146.097656 52.277344 C 144.898438 52.277344 144.222656 50.851562 145.046875 49.953125 C 145.722656 49.128906 146.621094 49.203125 147.222656 50.179688 Z M 147.222656 50.175781 "/>
</g>
</svg>
